<svg width="30" height="31" viewBox="0 0 30 31" fill="none" xmlns="http://www.w3.org/2000/svg">
<ellipse cx="15" cy="15.9588" rx="15" ry="15.0326" fill="#00A2B6"/>
<path d="M7.14258 10.542C7.14258 9.97563 7.61222 9.5166 8.19169 9.5166H20.3792C20.9586 9.5166 21.4283 9.97563 21.4283 10.542V22.8079C21.4283 23.3743 20.9586 23.8333 20.3792 23.8333H8.19169C7.61222 23.8333 7.14258 23.3743 7.14258 22.8079V10.542ZM11.556 21.5015V15.0366H9.41222V21.5015H11.556ZM10.4845 14.1534C11.2319 14.1534 11.697 13.6577 11.697 13.0367C11.6836 12.4023 11.2328 11.92 10.4988 11.92C9.7649 11.92 9.28544 12.4032 9.28544 13.0367C9.28544 13.6577 9.75061 14.1534 10.4703 14.1534H10.4845ZM14.8667 21.5015V17.891C14.8667 17.6977 14.881 17.5044 14.9381 17.3666C15.0926 16.981 15.4453 16.581 16.0381 16.581C16.814 16.581 17.1238 17.1734 17.1238 18.0431V21.5015H19.2676V17.7935C19.2676 15.807 18.2104 14.8836 16.7997 14.8836C15.6622 14.8836 15.1524 15.5099 14.8667 15.9511V15.9735H14.8524L14.8667 15.9511V15.0366H12.7238C12.7506 15.6433 12.7238 21.5015 12.7238 21.5015H14.8667Z" fill="white"/>
</svg>
