<svg width="30" height="31" viewBox="0 0 30 31" fill="none" xmlns="http://www.w3.org/2000/svg">
<ellipse cx="15" cy="15.9588" rx="15" ry="15.0326" fill="#00A2B6"/>
<path d="M21.3823 13.7423C21.3743 13.1411 21.2618 12.546 21.0499 11.9834C20.8661 11.5089 20.5854 11.078 20.2258 10.7181C19.8661 10.3583 19.4354 10.0775 18.9611 9.89361C18.4061 9.68515 17.8197 9.57243 17.227 9.56026C16.4638 9.52613 16.2219 9.5166 14.2846 9.5166C12.3474 9.5166 12.0991 9.5166 11.3415 9.56026C10.749 9.57252 10.1629 9.68524 9.60815 9.89361C9.1338 10.0773 8.70301 10.3581 8.34334 10.718C7.98367 11.0778 7.70303 11.5088 7.51939 11.9834C7.31062 12.5383 7.19821 13.1248 7.187 13.7176C7.15289 14.482 7.14258 14.7241 7.14258 16.6623C7.14258 18.6005 7.14258 18.8481 7.187 19.6069C7.1989 20.2006 7.31076 20.7863 7.51939 21.3427C7.70334 21.8172 7.98419 22.248 8.34398 22.6077C8.70377 22.9674 9.1346 23.248 9.60894 23.4317C10.1622 23.6486 10.7484 23.7694 11.3423 23.7889C12.1062 23.823 12.3482 23.8333 14.2854 23.8333C16.2227 23.8333 16.471 23.8333 17.2286 23.7889C17.8213 23.7772 18.4077 23.6648 18.9627 23.4563C19.4369 23.2723 19.8675 22.9914 20.2271 22.6316C20.5867 22.2717 20.8675 21.8409 21.0515 21.3665C21.2601 20.8109 21.372 20.2252 21.3839 19.6307C21.418 18.8672 21.4283 18.6251 21.4283 16.6861C21.4267 14.7479 21.4267 14.5018 21.3823 13.7423ZM14.2799 20.3276C12.2538 20.3276 10.6125 18.6854 10.6125 16.6583C10.6125 14.6312 12.2538 12.989 14.2799 12.989C15.2525 12.989 16.1854 13.3756 16.8731 14.0637C17.5609 14.7519 17.9473 15.6852 17.9473 16.6583C17.9473 17.6315 17.5609 18.5647 16.8731 19.2529C16.1854 19.941 15.2525 20.3276 14.2799 20.3276ZM18.0933 13.7089C17.9809 13.709 17.8697 13.687 17.7659 13.644C17.6621 13.601 17.5678 13.538 17.4883 13.4585C17.4089 13.3791 17.3459 13.2847 17.303 13.1809C17.26 13.077 17.238 12.9657 17.2381 12.8533C17.2381 12.741 17.2602 12.6298 17.3032 12.526C17.3461 12.4223 17.4091 12.328 17.4885 12.2486C17.5678 12.1692 17.6621 12.1062 17.7658 12.0632C17.8695 12.0202 17.9806 11.9981 18.0929 11.9981C18.2051 11.9981 18.3163 12.0202 18.42 12.0632C18.5237 12.1062 18.6179 12.1692 18.6973 12.2486C18.7767 12.328 18.8396 12.4223 18.8826 12.526C18.9255 12.6298 18.9476 12.741 18.9476 12.8533C18.9476 13.3264 18.5653 13.7089 18.0933 13.7089Z" fill="white"/>
</svg>
