<svg width="32" height="23" viewBox="0 0 32 23" fill="none" xmlns="http://www.w3.org/2000/svg">
<path fill-rule="evenodd" clip-rule="evenodd" d="M29.1871 0C30.6518 0 31.8411 1.14387 31.8411 2.55607V20.4439C31.8411 21.8546 30.6534 23 29.1871 23H2.65395C1.18926 23 0 21.8561 0 20.4439V2.55607C0 1.1454 1.18767 0 2.65395 0H29.1871ZM11.4118 13.5363L3.59486 20.976H27.9931L20.2605 13.6129L15.9205 16.5063L11.4118 13.5363ZM29.6759 7.34773L22.0404 12.4323L29.6759 19.6941V7.34773ZM2.16679 7.44127V19.4565L9.62715 12.3556L2.16679 7.44127ZM29.1617 2.02553H2.70331C2.55807 2.01928 2.4158 2.06642 2.30529 2.1574C2.25626 2.19969 2.21841 2.25263 2.19487 2.31183C2.17134 2.37103 2.1628 2.43479 2.16997 2.4978V4.9818L15.9205 14.0392L29.6823 4.89287V2.60513C29.6833 2.40069 29.6345 2.25144 29.5358 2.1574C29.4871 2.11098 29.4287 2.07518 29.3644 2.05243C29.3001 2.02968 29.2315 2.02051 29.1633 2.02553" fill="#ACACAC"/>
</svg>
